<svg width="149" height="22" viewBox="0 0 149 22" fill="none" xmlns="http://www.w3.org/2000/svg">
<path d="M7.216 19.388V21H0.0400001V19.388L2.068 18.842V4.958L0.0400001 4.49V2.878L7.216 2.748V4.334L5.266 4.932V10.522H7.97L11.35 4.854L9.556 4.49V2.878L16.342 2.748V4.36L14.418 4.906L10.336 11.484L15.458 18.894L17.226 19.388V21H10.154V19.388L11.87 18.868L7.866 12.836H5.266V18.816L7.216 19.388ZM18.1386 21V19.388L19.9846 18.894V9.352L18.1386 8.858V7.246L22.4026 7.038L22.7406 9.092C23.538 8.34667 24.3786 7.792 25.2626 7.428C26.1466 7.064 26.9786 6.882 27.7586 6.882C28.92 6.882 29.882 7.246 30.6446 7.974C31.4246 8.702 31.806 9.80267 31.7886 11.276V18.894L33.6346 19.388V21H26.9786V19.388L28.6686 18.92V11.952C28.6686 11.0333 28.4606 10.3573 28.0446 9.924C27.646 9.49067 27.1086 9.274 26.4326 9.274C25.93 9.274 25.3926 9.404 24.8206 9.664C24.2486 9.90667 23.6766 10.288 23.1046 10.808V18.92L24.7946 19.388V21H18.1386ZM41.5555 19.388V21H34.7695V19.388L36.6155 18.894V9.326L34.7695 8.858V7.246L39.7355 7.064V18.894L41.5555 19.388ZM38.0455 4.776C37.4735 4.776 37.0142 4.62 36.6675 4.308C36.3208 3.97867 36.1475 3.51067 36.1475 2.904C36.1475 2.26267 36.3295 1.786 36.6935 1.474C37.0575 1.14467 37.5168 0.979999 38.0715 0.979999C38.6088 0.979999 39.0508 1.14467 39.3975 1.474C39.7615 1.786 39.9435 2.254 39.9435 2.878C39.9435 3.502 39.7615 3.97867 39.3975 4.308C39.0335 4.62 38.5828 4.776 38.0455 4.776ZM47.7577 21.286C46.6657 21.286 45.8251 20.9567 45.2357 20.298C44.6464 19.622 44.3517 18.6167 44.3517 17.282V9.274H42.2197V7.584L44.3517 7.142V4.1L47.4977 3.554V7.168H51.1377L51.0857 9.274H47.4977V16.866C47.4977 17.6113 47.6277 18.1487 47.8877 18.478C48.1477 18.8073 48.5204 18.972 49.0057 18.972C49.5604 18.972 50.2537 18.79 51.0857 18.426L51.6837 20.142C50.3144 20.9047 49.0057 21.286 47.7577 21.286ZM53.0302 21V19.388L55.0582 18.842V4.984L53.0302 4.49V2.878L58.2042 2.748H65.9782L66.0042 7.272H64.0802L63.6642 5.062H58.2562V10.704H64.0022V13.018H58.2562V18.842L60.7782 19.388V21H53.0302ZM75.7069 21.182L75.3169 18.972C74.6236 19.752 73.8696 20.3327 73.0549 20.714C72.2402 21.0953 71.4429 21.286 70.6629 21.286C69.5882 21.286 68.6869 20.948 67.9589 20.272C67.2482 19.5787 66.8929 18.5733 66.8929 17.256C66.8929 15.7653 67.3609 14.734 68.2969 14.162C69.2502 13.5727 70.5676 13.278 72.2489 13.278H75.0049V11.588C75.0049 10.7387 74.7882 10.132 74.3549 9.768C73.9216 9.38667 73.3062 9.196 72.5089 9.196C71.8156 9.196 71.0269 9.326 70.1429 9.586L69.8569 11.51H67.8549L67.6469 7.87C69.9002 7.21133 71.7982 6.882 73.3409 6.882C74.8662 6.882 76.0449 7.22 76.8769 7.896C77.7089 8.55467 78.1249 9.59467 78.1249 11.016V18.842L79.9709 19.362V20.974L75.7069 21.182ZM70.0389 16.97C70.0389 17.6807 70.2036 18.2007 70.5329 18.53C70.8622 18.842 71.2869 18.998 71.8069 18.998C72.2749 18.998 72.7862 18.8593 73.3409 18.582C73.9129 18.3047 74.4676 17.9147 75.0049 17.412V15.072H72.7429C71.7202 15.072 71.0096 15.228 70.6109 15.54C70.2296 15.852 70.0389 16.3287 70.0389 16.97ZM84.6942 10.6C84.6942 11.0507 84.8675 11.4147 85.2142 11.692C85.5608 11.952 86.0115 12.1773 86.5662 12.368C87.1208 12.5413 87.7015 12.7233 88.3082 12.914C88.9322 13.1047 89.5128 13.356 90.0502 13.668C90.6048 13.9627 91.0555 14.3613 91.4022 14.864C91.7488 15.3493 91.9222 15.9907 91.9222 16.788C91.9222 17.7587 91.6535 18.582 91.1162 19.258C90.5962 19.934 89.8768 20.4453 88.9582 20.792C88.0568 21.1213 87.0342 21.286 85.8902 21.286C85.2142 21.286 84.5035 21.2253 83.7582 21.104C83.0302 21 82.2848 20.844 81.5222 20.636L81.6782 16.84H83.6542L83.8882 18.894C84.2348 18.9807 84.5902 19.05 84.9542 19.102C85.3355 19.154 85.6735 19.18 85.9682 19.18C86.4362 19.18 86.8868 19.1107 87.3202 18.972C87.7535 18.8333 88.1088 18.6253 88.3862 18.348C88.6635 18.0707 88.8022 17.724 88.8022 17.308C88.8022 16.84 88.6288 16.4673 88.2822 16.19C87.9355 15.9127 87.4848 15.6873 86.9302 15.514C86.3928 15.3233 85.8208 15.1327 85.2142 14.942C84.6075 14.7513 84.0268 14.5087 83.4722 14.214C82.9348 13.902 82.4928 13.4947 82.1462 12.992C81.7995 12.4893 81.6262 11.8307 81.6262 11.016C81.6262 10.0453 81.8688 9.25667 82.3542 8.65C82.8395 8.04333 83.4808 7.60133 84.2782 7.324C85.0928 7.02933 85.9682 6.882 86.9042 6.882C88.2388 6.882 89.7382 7.13333 91.4022 7.636L91.2722 10.938H89.2702L88.9322 9.248C88.2215 9.07467 87.5888 8.988 87.0342 8.988C86.3408 8.988 85.7775 9.13533 85.3442 9.43C84.9108 9.72467 84.6942 10.1147 84.6942 10.6ZM93.4139 21V19.388L95.2339 18.894V3.138L93.4139 2.644V1.032L98.3539 0.823999V8.754C99.1166 8.13 99.8966 7.662 100.694 7.35C101.509 7.038 102.28 6.882 103.008 6.882C104.169 6.882 105.131 7.246 105.894 7.974C106.674 8.702 107.064 9.794 107.064 11.25V18.894L108.884 19.388V21H102.254V19.388L103.944 18.92V11.926C103.944 11.0247 103.736 10.3573 103.32 9.924C102.904 9.49067 102.358 9.274 101.682 9.274C101.197 9.274 100.659 9.404 100.07 9.664C99.4979 9.90667 98.9259 10.288 98.3539 10.808V18.92L100.044 19.388V21H93.4139ZM116.839 19.388V21H110.053V19.388L111.899 18.894V9.326L110.053 8.858V7.246L115.019 7.064V18.894L116.839 19.388ZM113.329 4.776C112.757 4.776 112.297 4.62 111.951 4.308C111.604 3.97867 111.431 3.51067 111.431 2.904C111.431 2.26267 111.613 1.786 111.977 1.474C112.341 1.14467 112.8 0.979999 113.355 0.979999C113.892 0.979999 114.334 1.14467 114.681 1.474C115.045 1.786 115.227 2.254 115.227 2.878C115.227 3.502 115.045 3.97867 114.681 4.308C114.317 4.62 113.866 4.776 113.329 4.776ZM124.965 6.882C126.958 6.882 128.518 7.48867 129.645 8.702C130.772 9.91533 131.335 11.6227 131.335 13.824C131.335 15.3667 131.058 16.6927 130.503 17.802C129.966 18.9113 129.186 19.7693 128.163 20.376C127.158 20.9827 125.944 21.286 124.523 21.286C122.53 21.286 120.978 20.688 119.869 19.492C118.777 18.296 118.231 16.58 118.231 14.344C118.231 12.0387 118.82 10.2187 119.999 8.884C121.195 7.54933 122.85 6.882 124.965 6.882ZM124.809 9.118C122.59 9.118 121.481 10.808 121.481 14.188C121.481 15.852 121.75 17.0827 122.287 17.88C122.824 18.66 123.622 19.05 124.679 19.05C125.823 19.05 126.681 18.6167 127.253 17.75C127.825 16.8833 128.111 15.6267 128.111 13.98C128.111 10.7387 127.01 9.118 124.809 9.118ZM133.107 21V19.388L134.953 18.894V9.352L133.107 8.858V7.246L137.371 7.038L137.709 9.092C138.507 8.34667 139.347 7.792 140.231 7.428C141.115 7.064 141.947 6.882 142.727 6.882C143.889 6.882 144.851 7.246 145.613 7.974C146.393 8.702 146.775 9.80267 146.757 11.276V18.894L148.603 19.388V21H141.947V19.388L143.637 18.92V11.952C143.637 11.0333 143.429 10.3573 143.013 9.924C142.615 9.49067 142.077 9.274 141.401 9.274C140.899 9.274 140.361 9.404 139.789 9.664C139.217 9.90667 138.645 10.288 138.073 10.808V18.92L139.763 19.388V21H133.107Z" fill="black"/>
</svg>
